<?xml version="1.0" standalone="no"?>
<!DOCTYPE svg PUBLIC "-//W3C//DTD SVG 20010904//EN"
 "http://www.w3.org/TR/2001/REC-SVG-20010904/DTD/svg10.dtd">
<svg version="1.0" xmlns="http://www.w3.org/2000/svg"
 width="562.000000pt" height="444.000000pt" viewBox="0 0 562.000000 444.000000"
 preserveAspectRatio="xMidYMid meet">

<g transform="translate(0.000000,444.000000) scale(0.100000,-0.100000)"
fill="#000000" stroke="none">
<path d="M2616 4010 c-43 -5 -130 -21 -193 -34 -524 -116 -963 -457 -1210
-941 -28 -55 -56 -118 -63 -140 -7 -22 -16 -44 -20 -50 -4 -5 -21 -59 -38
-120 -106 -372 -84 -806 57 -1152 43 -105 115 -244 157 -305 111 -159 127
-179 239 -292 269 -271 613 -446 1000 -508 118 -18 437 -15 559 6 754 129
1334 703 1467 1452 44 242 28 572 -36 786 -98 324 -231 551 -460 783 -264 268
-605 441 -1000 506 -86 14 -367 19 -459 9z m354 -195 c513 -69 972 -380 1225
-829 93 -165 144 -304 187 -506 19 -89 23 -136 23 -310 0 -178 -3 -220 -24
-314 -22 -103 -74 -282 -92 -316 -4 -8 -28 -58 -53 -110 -183 -387 -557 -710
-971 -840 -55 -17 -114 -35 -131 -41 -154 -47 -554 -51 -744 -6 -483 114 -877
408 -1104 822 -30 55 -64 125 -76 155 -11 30 -25 64 -30 75 -19 41 -60 193
-77 285 -21 119 -24 439 -5 550 64 358 211 648 457 896 198 201 390 324 640
412 92 33 252 71 335 81 119 13 326 12 440 -4z"/>
<path d="M2630 3769 c-219 -23 -497 -125 -679 -248 -344 -234 -571 -574 -658
-985 -22 -104 -26 -146 -26 -301 0 -155 4 -197 26 -301 82 -391 284 -709 599
-943 102 -77 176 -118 338 -189 145 -63 336 -102 541 -109 607 -21 1174 325
1437 878 57 119 90 218 123 369 32 148 33 437 1 585 -47 215 -125 405 -230
563 -150 225 -380 424 -622 539 -262 125 -549 173 -850 142z m375 -205 c484
-83 904 -433 1073 -894 141 -384 112 -801 -80 -1160 -211 -393 -608 -668
-1051 -729 -99 -14 -302 -14 -387 -1 -472 74 -863 353 -1063 760 -63 127 -69
142 -101 250 -68 230 -72 490 -10 734 124 488 485 861 979 1009 187 56 427 68
640 31z"/>
<path d="M2650 3530 c-287 -36 -566 -173 -765 -375 -89 -91 -106 -111 -165
-198 -289 -431 -289 -1012 1 -1444 63 -94 79 -114 174 -208 167 -168 372 -281
620 -342 99 -24 128 -27 295 -27 170 -1 194 2 295 27 242 61 430 160 597 316
112 105 200 222 268 356 69 138 74 149 105 265 37 140 51 311 37 457 -11 105
-47 273 -71 328 -98 222 -172 337 -295 460 -109 108 -127 123 -216 180 -145
93 -331 167 -490 194 -92 16 -301 22 -390 11z m250 -195 c241 -34 389 -95 574
-234 231 -175 398 -461 437 -751 18 -132 6 -335 -26 -455 -27 -101 -43 -142
-97 -250 -98 -195 -281 -376 -490 -483 -103 -53 -151 -71 -283 -104 -121 -31
-368 -33 -490 -4 -373 88 -661 318 -816 653 -149 321 -134 732 39 1038 186
330 492 538 869 589 131 18 160 18 283 1z"/>
<path d="M2646 3290 c-89 -14 -221 -57 -309 -101 -328 -162 -549 -480 -587
-844 -26 -246 31 -485 165 -690 151 -231 381 -393 655 -460 103 -25 308 -30
418 -11 235 41 407 131 583 306 167 165 270 377 299 615 40 328 -69 644 -300
875 -143 144 -303 236 -505 290 -91 25 -319 35 -419 20z m280 -201 c169 -31
319 -104 447 -217 402 -355 408 -973 15 -1337 -329 -304 -830 -325 -1175 -48
-170 137 -266 286 -319 497 -127 498 208 1010 721 1105 71 13 241 13 311 0z"/>
<path d="M2670 3049 c-173 -25 -381 -145 -496 -286 -107 -132 -166 -273 -183
-436 -13 -127 5 -298 39 -372 5 -11 16 -38 25 -59 46 -116 185 -278 302 -353
338 -216 783 -165 1051 121 158 170 226 341 226 571 0 184 -39 315 -136 457
-185 274 -494 407 -828 357z m311 -223 c177 -62 307 -174 384 -331 47 -98 66
-175 66 -281 1 -102 -3 -132 -33 -219 -51 -148 -158 -278 -295 -358 -145 -84
-352 -106 -510 -54 -207 68 -357 214 -430 419 -23 64 -26 89 -26 203 -1 140 6
168 65 293 76 161 259 306 429 341 30 6 63 13 74 15 48 11 211 -5 276 -28z"/>
<path d="M2676 2804 c-207 -45 -374 -206 -432 -419 -18 -66 -18 -236 1 -305
35 -130 138 -271 254 -344 120 -77 313 -107 450 -72 293 75 483 354 442 649
-48 345 -369 565 -715 491z m287 -229 c81 -40 151 -111 190 -192 29 -62 32
-76 32 -168 0 -91 -3 -106 -31 -165 -51 -106 -142 -185 -248 -215 -197 -57
-389 34 -480 225 -27 58 -30 75 -30 155 0 79 4 98 31 157 51 109 138 189 246
224 28 9 75 13 137 11 80 -3 104 -8 153 -32z"/>
<path d="M2698 2562 c-96 -31 -180 -117 -214 -216 -23 -69 -16 -205 15 -264
34 -66 93 -125 158 -158 53 -26 67 -29 158 -29 92 0 104 2 154 30 29 16 74 53
100 82 62 69 86 136 84 236 0 66 -5 87 -32 142 -77 157 -257 233 -423 177z
m190 -221 c17 -12 38 -41 47 -65 47 -123 -81 -240 -198 -180 -37 20 -57 44
-75 93 -13 36 -10 53 16 110 31 67 143 90 210 42z"/>
<path d="M2740 2311 c-36 -36 -46 -73 -30 -112 18 -44 56 -69 103 -69 33 0 46
6 73 36 37 39 42 69 19 114 -34 66 -115 82 -165 31z"/>
</g>
</svg>
