<?xml version="1.0" standalone="no"?>
<!DOCTYPE svg PUBLIC "-//W3C//DTD SVG 20010904//EN"
 "http://www.w3.org/TR/2001/REC-SVG-20010904/DTD/svg10.dtd">
<svg version="1.0" xmlns="http://www.w3.org/2000/svg"
 width="1600.000000pt" height="1200.000000pt" viewBox="0 0 1600.000000 1200.000000"
 preserveAspectRatio="xMidYMid meet">

<g transform="translate(0.000000,1200.000000) scale(0.100000,-0.100000)"
fill="#000000" stroke="none">
<path d="M7775 8494 c-107 -11 -262 -38 -374 -65 -886 -216 -1595 -918 -1821
-1804 -63 -245 -74 -345 -74 -625 0 -280 11 -380 74 -625 152 -596 521 -1114
1040 -1460 197 -132 442 -247 666 -313 441 -131 952 -136 1388 -12 413 117
759 317 1065 615 223 218 376 425 501 680 180 368 260 709 260 1115 0 406 -80
747 -260 1115 -125 255 -278 462 -501 680 -369 359 -802 580 -1319 672 -123
21 -181 26 -375 28 -126 2 -248 1 -270 -1z m310 -264 c832 -69 1551 -555 1914
-1294 162 -331 235 -648 235 -1026 0 -291 -37 -515 -129 -780 -247 -709 -862
-1278 -1589 -1471 -259 -69 -577 -95 -831 -70 -555 56 -1055 296 -1441 692
-350 361 -561 785 -641 1290 -25 158 -25 518 0 676 70 441 241 819 526 1163
468 564 1223 880 1956 820z"/>
<path d="M7820 8159 c-760 -66 -1422 -518 -1759 -1199 -152 -307 -223 -613
-223 -960 0 -256 30 -446 109 -684 155 -466 467 -869 883 -1139 455 -294 1036
-408 1568 -306 445 85 812 279 1133 599 648 646 819 1616 431 2452 -170 367
-480 713 -832 928 -383 234 -868 348 -1310 309z m240 -269 c943 -72 1692 -776
1821 -1710 19 -137 16 -411 -5 -545 -91 -575 -395 -1050 -876 -1368 -218 -144
-463 -241 -745 -294 -127 -24 -455 -29 -599 -9 -665 93 -1225 502 -1515 1107
-142 295 -198 570 -188 913 9 316 68 551 209 831 305 607 924 1022 1600 1074
151 12 151 12 298 1z"/>
<path d="M7760 7815 c-287 -39 -585 -156 -820 -323 -122 -86 -345 -309 -433
-432 -211 -297 -337 -694 -337 -1060 0 -366 126 -763 337 -1060 88 -123 311
-346 433 -432 179 -127 425 -238 639 -289 544 -130 1138 5 1571 357 93 75 256
245 327 340 137 186 241 405 297 632 44 176 51 239 51 452 0 127 -5 233 -13
280 -73 404 -227 711 -496 988 -202 207 -398 339 -660 442 -260 102 -614 144
-896 105z m525 -299 c145 -34 229 -63 360 -126 443 -213 777 -641 875 -1120
111 -545 -51 -1089 -440 -1480 -560 -562 -1437 -634 -2090 -172 -120 85 -286
250 -373 372 -82 116 -185 321 -227 454 -99 314 -97 680 4 989 174 530 602
934 1134 1068 169 43 218 48 437 45 177 -2 214 -6 320 -30z"/>
<path d="M7890 7489 c-268 -19 -540 -117 -763 -276 -108 -77 -267 -237 -346
-348 -113 -160 -202 -368 -247 -575 -27 -122 -27 -458 0 -580 45 -207 134
-415 247 -575 79 -111 238 -271 346 -348 225 -160 497 -258 766 -275 213 -14
406 10 591 75 901 314 1285 1356 801 2178 -239 405 -700 695 -1148 721 -50 3
-103 6 -117 8 -14 1 -72 -1 -130 -5z m270 -294 c459 -75 853 -417 994 -864 39
-124 56 -239 56 -386 0 -216 -42 -395 -137 -578 -172 -333 -476 -568 -847
-655 -143 -33 -381 -37 -516 -9 -260 55 -467 165 -646 342 -187 186 -301 392
-355 646 -29 134 -31 371 -5 494 114 530 506 915 1025 1009 104 19 315 19 431
1z"/>
<path d="M7818 7144 c-480 -74 -873 -461 -959 -944 -17 -96 -17 -304 0 -400
62 -346 283 -653 591 -819 381 -205 842 -182 1205 62 84 56 236 207 295 293
274 397 278 917 9 1316 -58 86 -208 238 -293 297 -250 172 -552 242 -848 195z
m395 -308 c340 -101 585 -375 646 -720 14 -77 14 -235 0 -312 -61 -345 -324
-633 -664 -726 -110 -30 -346 -32 -449 -4 -174 47 -326 136 -443 259 -161 170
-253 397 -253 627 0 438 322 821 758 900 26 5 108 7 182 6 110 -3 151 -8 223
-30z"/>
<path d="M7805 6799 c-235 -59 -441 -226 -545 -443 -62 -129 -74 -190 -74
-356 0 -167 12 -227 75 -357 106 -221 313 -386 554 -444 75 -18 110 -20 215
-16 147 5 213 22 335 81 156 77 285 202 364 355 64 125 83 198 88 351 7 165
-12 256 -81 395 -81 164 -208 291 -371 371 -127 62 -187 76 -345 80 -111 3
-149 0 -215 -17z m300 -284 c104 -27 184 -72 261 -149 140 -140 194 -331 149
-524 -45 -191 -208 -356 -401 -407 -75 -19 -203 -19 -278 0 -243 63 -416 287
-416 535 0 159 51 282 165 396 138 139 337 196 520 149z"/>
<path d="M7906 6478 c-118 -22 -248 -111 -315 -216 -53 -83 -73 -155 -73 -262
0 -150 48 -258 160 -362 193 -176 487 -165 670 26 186 193 187 478 2 670 -119
124 -279 176 -444 144z m173 -314 c64 -32 99 -82 108 -151 11 -99 -47 -190
-140 -218 -61 -18 -106 -12 -164 21 -116 66 -127 247 -20 328 70 54 136 60
216 20z"/>
<path d="M7934 6136 c-108 -47 -106 -227 2 -272 106 -44 214 25 214 136 0 112
-111 181 -216 136z"/>
<path d="M14844 1190 c-31 -12 -72 -66 -80 -105 -13 -72 39 -147 111 -161 51
-9 84 3 127 45 34 34 38 44 38 87 0 58 -26 106 -69 129 -32 16 -93 19 -127 5z
m120 -66 c70 -70 -14 -186 -102 -140 -16 8 -35 28 -41 44 -37 88 75 163 143
96z"/>
<path d="M15130 961 c0 -77 -4 -103 -16 -115 -8 -9 -20 -16 -25 -16 -12 0 -12
-37 1 -45 13 -8 67 22 80 44 5 11 10 67 10 125 l0 106 -25 0 c-25 0 -25 0 -25
-99z"/>
<path d="M14900 860 c0 -74 97 -170 171 -170 13 0 19 7 19 24 0 18 -7 25 -31
30 -40 8 -97 65 -105 105 -5 24 -12 31 -30 31 -17 0 -24 -6 -24 -20z"/>
<path d="M15316 868 c-3 -7 -7 -29 -10 -48 -14 -77 -83 -142 -176 -166 -34 -8
-46 -16 -48 -33 -3 -17 2 -21 26 -21 93 0 204 83 238 179 15 41 23 51 41 51
18 0 23 6 23 25 0 23 -4 25 -45 25 -28 0 -47 -5 -49 -12z"/>
</g>
</svg>
