<?xml version="1.0" standalone="no"?>
<!DOCTYPE svg PUBLIC "-//W3C//DTD SVG 20010904//EN"
 "http://www.w3.org/TR/2001/REC-SVG-20010904/DTD/svg10.dtd">
<svg version="1.0" xmlns="http://www.w3.org/2000/svg"
 width="565.000000pt" height="539.000000pt" viewBox="0 0 565.000000 539.000000"
 preserveAspectRatio="xMidYMid meet">

<g transform="translate(0.000000,539.000000) scale(0.100000,-0.100000)"
fill="#000000" stroke="none">
<path d="M3115 5379 c-390 -53 -741 -336 -825 -665 -37 -143 -19 -359 40 -474
16 -31 18 -45 10 -59 -16 -31 -12 -55 25 -168 42 -124 49 -138 85 -178 15 -16
34 -51 44 -76 9 -26 37 -75 61 -110 24 -35 43 -64 41 -66 -1 -1 -240 38 -532
87 -291 49 -534 90 -540 90 -7 0 -19 53 -30 136 -10 74 -23 142 -28 149 -6 8
-42 21 -81 29 -142 29 -403 86 -495 107 -138 31 -175 33 -269 15 -46 -9 -85
-16 -87 -16 -2 0 -8 -8 -13 -19 -8 -13 -2 -72 19 -207 34 -221 82 -543 111
-734 11 -74 28 -191 39 -260 11 -69 25 -161 31 -205 12 -80 35 -125 66 -125 7
0 13 -3 13 -8 0 -4 -71 -22 -157 -40 -86 -17 -161 -36 -167 -42 -15 -15 -8
-200 8 -225 8 -11 29 -29 49 -39 35 -19 35 -20 41 -105 3 -47 11 -180 16 -296
6 -115 17 -320 25 -455 8 -135 15 -277 15 -315 0 -48 5 -78 16 -93 17 -24 143
-92 171 -92 23 0 155 49 171 64 9 9 15 85 23 262 6 137 12 250 14 252 1 1 270
-152 596 -341 l594 -343 7 -120 c24 -441 31 -551 38 -569 5 -12 49 -42 111
-74 l102 -54 84 27 c55 18 88 35 97 49 11 17 16 99 21 359 l7 336 42 16 c90
34 666 225 666 221 0 -2 -31 -29 -70 -60 -54 -43 -70 -62 -75 -89 -11 -59 24
-95 107 -110 79 -14 259 52 312 114 12 15 33 30 47 33 14 4 38 19 52 33 26 25
27 32 28 128 1 157 15 82 34 -189 9 -132 21 -251 26 -266 10 -26 121 -89 157
-89 22 0 139 45 158 61 11 9 14 57 14 239 0 213 1 228 20 245 27 25 43 80 35
122 -6 32 -1 44 40 105 46 66 49 68 89 68 22 0 57 -3 76 -6 31 -5 37 -11 50
-52 18 -53 51 -81 107 -89 105 -14 175 87 126 180 -9 18 -16 42 -14 54 5 43
-35 66 -199 111 l-155 43 4 96 c2 64 -1 103 -10 119 -7 13 -10 25 -8 27 2 2
49 15 104 29 241 63 299 102 325 222 10 45 8 54 -15 101 -31 64 -31 71 0 166
32 103 54 231 61 369 l7 115 93 0 c87 0 95 2 135 30 154 108 179 415 72 888
-16 74 -21 79 -153 135 -179 76 -502 93 -697 37 -65 -19 -140 -85 -149 -134
-4 -17 -9 -30 -13 -29 -3 2 -35 18 -71 36 -36 18 -93 38 -127 44 -35 6 -63 16
-63 21 0 5 11 22 24 38 39 46 67 133 65 203 -1 86 48 218 109 291 24 28 24 34
19 125 -11 175 -51 329 -121 465 -56 110 -164 220 -261 264 -38 18 -99 48
-135 66 -119 60 -285 85 -435 64z m230 -801 c23 -71 81 -179 142 -264 27 -38
53 -75 57 -81 6 -10 -33 -13 -181 -13 l-189 0 -17 30 c-61 102 -267 77 -342
-42 -7 -11 -31 -17 -77 -21 -59 -4 -68 -3 -68 12 0 19 -32 52 -67 70 -31 16
-99 14 -133 -4 -30 -15 -30 -15 -30 13 0 37 17 51 110 95 99 47 231 127 304
184 l59 47 -42 -80 c-23 -43 -66 -109 -96 -147 -30 -37 -55 -70 -55 -73 0 -10
134 8 195 27 110 34 321 181 387 269 12 17 23 30 24 30 1 0 10 -24 19 -52z
m-325 -368 c-30 -5 -71 -8 -90 -8 -28 -1 -31 1 -15 8 11 5 52 8 90 8 l70 -1
-55 -7z m-400 -14 c23 -13 22 -14 -35 -20 -33 -4 -75 -8 -92 -11 -39 -4 -41 0
-10 26 26 22 100 25 137 5z m1230 -28 c43 -71 13 -210 -59 -271 -17 -14 -61
-40 -96 -57 -36 -17 -65 -32 -65 -33 0 -8 57 0 65 9 6 7 22 19 36 28 24 15 27
15 65 -15 l40 -30 -8 -67 c-10 -82 -39 -167 -85 -252 -20 -36 -37 -67 -39 -69
-2 -2 -45 15 -95 38 -99 47 -107 46 -135 -13 -8 -17 -9 -23 -2 -12 44 63 36
62 121 23 42 -20 77 -38 77 -42 0 -11 -32 -69 -47 -87 -8 -9 -12 -22 -7 -29 4
-8 3 -10 -5 -5 -6 4 -18 3 -25 -3 -10 -8 -24 -1 -59 29 -25 23 -49 50 -52 60
-4 11 -13 20 -20 20 -20 0 -35 32 -36 77 -1 37 -1 37 -9 10 -10 -32 0 -66 24
-86 9 -7 14 -17 11 -21 -3 -4 6 -34 19 -66 42 -104 38 -112 -9 -19 -25 50 -55
105 -67 124 -25 39 -40 118 -25 128 6 3 26 8 45 10 33 4 34 2 21 -14 -13 -16
-12 -17 4 -4 11 9 31 12 56 8 36 -4 42 -1 79 37 36 37 80 106 68 106 -3 0 -13
-14 -21 -31 -9 -16 -32 -47 -51 -69 -33 -36 -36 -37 -69 -27 -33 10 -34 12
-21 31 14 22 67 188 62 193 -2 2 -15 -21 -30 -51 -32 -66 -91 -119 -231 -206
-163 -103 -237 -134 -316 -134 -87 1 -140 26 -151 71 l-9 33 -61 -31 -61 -31
-156 27 c-86 15 -226 40 -311 56 -85 16 -191 35 -235 43 -240 43 -568 106
-572 110 -2 2 21 14 53 25 l57 22 451 -76 c248 -42 514 -87 591 -100 191 -32
205 -34 205 -28 0 3 -31 39 -70 79 -62 66 -115 148 -134 212 -7 20 -4 22 35
22 24 0 55 8 74 20 l33 20 -16 -44 c-16 -44 -16 -45 8 -70 13 -15 28 -26 33
-26 6 0 0 11 -13 24 -15 17 -20 31 -15 43 12 32 27 126 32 208 2 44 8 84 13
89 16 16 38 -13 59 -76 36 -107 96 -161 195 -174 117 -16 232 59 256 168 7 30
11 75 9 100 l-4 46 105 6 c58 4 131 9 162 12 l57 6 15 -53 c9 -29 16 -64 16
-78 0 -23 3 -21 26 19 47 83 115 140 167 140 20 0 32 -8 47 -32z m-715 -32
c39 -16 50 -43 49 -117 -1 -85 -61 -139 -154 -139 -108 0 -166 64 -186 206 -6
39 -5 42 20 46 22 4 26 2 20 -11 -14 -35 -16 -51 -5 -51 6 0 11 9 11 19 0 11
10 27 22 35 34 24 42 19 19 -10 -71 -91 63 -209 142 -126 37 38 38 102 2 137
l-24 25 25 0 c13 0 40 -6 59 -14z m55 -8 c0 -12 -1 -19 -3 -17 -1 2 -9 12 -16
22 -12 14 -11 17 3 17 10 0 16 -8 16 -22z m-504 -54 c10 -66 0 -142 -23 -172
-15 -21 -30 -28 -62 -30 -50 -4 -66 7 -69 43 -1 15 -8 52 -16 82 -21 79 -9
103 53 103 34 0 34 0 15 -21 -36 -40 -11 -149 35 -149 28 0 44 26 47 75 3 48
-21 89 -60 105 -16 7 -10 9 26 9 l47 1 7 -46z m381 30 c8 -21 -13 -42 -28 -27
-13 13 -5 43 11 43 6 0 13 -7 17 -16z m-568 -11 c-7 -10 -15 -20 -16 -22 -2
-2 -3 5 -3 17 0 14 6 22 16 22 14 0 15 -3 3 -17z m148 -38 c7 -20 -2 -29 -21
-22 -9 4 -13 13 -10 22 8 19 23 19 31 0z m1898 -165 c-99 -4 -196 -11 -215
-15 -19 -4 -32 -4 -28 0 13 13 126 22 278 22 l145 0 -180 -7z m302 -19 c40
-10 100 -32 134 -48 l63 -29 -38 -22 c-48 -28 -62 -28 -17 0 l33 21 -33 18
c-45 22 -119 46 -199 63 -36 8 -54 15 -40 15 14 0 57 -8 97 -18z m-576 -15
c-18 -10 -21 -15 -10 -20 8 -3 5 -5 -6 -3 -11 2 -26 -2 -33 -10 -7 -7 -17 -13
-23 -13 -18 0 1 20 39 40 41 21 71 27 33 6z m272 -3 c-35 -2 -91 -2 -125 0
-35 2 -7 3 62 3 69 0 97 -1 63 -3z m-210 -10 c-7 -2 -21 -2 -30 0 -10 3 -4 5
12 5 17 0 24 -2 18 -5z m340 0 c-7 -2 -21 -2 -30 0 -10 3 -4 5 12 5 17 0 24
-2 18 -5z m60 -10 c-7 -2 -19 -2 -25 0 -7 3 -2 5 12 5 14 0 19 -2 13 -5z m44
-9 c-3 -3 -12 -4 -19 -1 -8 3 -5 6 6 6 11 1 17 -2 13 -5z m58 -14 c13 -5 14
-9 5 -9 -8 0 -24 4 -35 9 -13 5 -14 9 -5 9 8 0 24 -4 35 -9z m75 -26 c23 -9
39 -18 37 -20 -2 -3 -24 4 -48 15 -54 24 -45 27 11 5z m-1033 -10 c-3 -3 -12
-4 -19 -1 -8 3 -5 6 6 6 11 1 17 -2 13 -5z m73 -14 c18 -12 2 -12 -25 0 -13 6
-15 9 -5 9 8 0 22 -4 30 -9z m60 -25 c17 -9 30 -18 30 -21 0 -4 -59 23 -69 32
-10 9 13 3 39 -11z m130 -92 c0 -7 -35 16 -65 42 -23 20 -18 19 18 -6 26 -18
47 -34 47 -36z m-48 6 c78 -26 125 -63 201 -159 101 -127 132 -227 85 -277
-27 -29 -46 -29 -59 0 l-10 22 5 -22 c2 -13 0 -23 -4 -23 -11 0 -24 65 -16 78
7 12 -3 42 -13 42 -12 0 7 -116 30 -196 12 -39 19 -79 18 -89 -10 -47 -129
-93 -265 -102 -91 -6 -94 -5 -94 15 0 31 -60 215 -74 227 -73 62 -101 282 -52
410 18 48 30 64 57 77 45 24 116 23 191 -3z m-792 -231 c0 -6 17 -38 38 -72
52 -82 97 -185 86 -195 -21 -18 -155 -72 -238 -95 -109 -32 -203 -35 -237 -7
-19 15 -27 40 -45 141 l-21 122 43 -6 c68 -9 185 26 279 83 77 47 95 53 95 29z
m220 -272 c0 -27 -10 -14 -16 20 -3 22 -2 25 6 14 5 -8 10 -24 10 -34z m937 2
c-3 -8 -6 -5 -6 6 -1 11 2 17 5 13 3 -3 4 -12 1 -19z m-1730 -80 c-3 -7 -5 -2
-5 12 0 14 2 19 5 13 2 -7 2 -19 0 -25z m10 -50 c-3 -7 -5 -2 -5 12 0 14 2 19
5 13 2 -7 2 -19 0 -25z m1773 -13 c0 -5 -5 -3 -10 5 -5 8 -10 20 -10 25 0 6 5
3 10 -5 5 -8 10 -19 10 -25z m-1579 -20 c53 -30 121 -33 211 -9 38 9 76 13
102 9 40 -7 136 -52 136 -64 0 -4 -38 -15 -85 -25 -81 -18 -86 -18 -122 -1
-74 36 -189 10 -229 -50 -9 -14 -19 -25 -23 -25 -4 0 -14 43 -22 95 -8 52 -14
95 -13 95 1 0 22 -11 45 -25z m-184 -32 c-3 -10 -5 -4 -5 12 0 17 2 24 5 18 2
-7 2 -21 0 -30z m1793 -28 c0 -5 -5 -3 -10 5 -5 8 -10 20 -10 25 0 6 5 3 10
-5 5 -8 10 -19 10 -25z m-1783 -32 c-3 -10 -5 -4 -5 12 0 17 2 24 5 18 2 -7 2
-21 0 -30z m1817 -40 c14 -29 24 -53 21 -53 -5 0 -55 95 -55 106 0 12 6 2 34
-53z m-1417 29 c17 -9 60 -42 96 -72 81 -69 212 -140 258 -140 37 0 208 43
240 60 11 6 17 15 14 20 -9 15 22 77 43 89 32 17 97 13 123 -7 20 -17 26 -18
73 -5 28 8 60 18 71 23 11 5 49 11 85 14 36 3 85 12 109 21 24 8 47 13 50 10
9 -10 31 -179 23 -187 -15 -14 -348 -88 -399 -88 -14 0 -26 -7 -29 -17 -10
-30 -38 -84 -47 -90 -5 -3 -5 16 -2 41 7 44 6 46 -16 46 -13 0 -62 -7 -109
-15 -47 -8 -102 -15 -123 -15 -22 0 -65 -13 -102 -31 -56 -27 -72 -30 -122
-26 -32 3 -71 8 -86 12 -22 6 -39 1 -78 -24 -87 -54 -107 -37 -33 28 43 37 45
41 22 41 -13 0 -48 -12 -77 -26 -36 -18 -56 -23 -63 -16 -24 24 37 84 107 104
l50 15 -39 8 c-54 11 -86 -3 -119 -53 -30 -44 -44 -52 -53 -27 -10 25 4 62 38
100 58 67 103 76 183 39 l30 -14 -25 17 c-13 10 -46 41 -72 68 -42 45 -51 50
-91 50 -33 0 -51 -7 -76 -27 -36 -31 -59 -35 -67 -13 -16 40 73 104 146 105
19 0 49 -8 67 -18z m390 -72 l20 -70 -39 0 c-27 0 -61 12 -111 41 -40 22 -76
44 -80 48 -7 7 131 47 173 50 11 1 22 -20 37 -69z m-769 -20 c0 -22 -1 -22 -8
5 -4 17 -8 41 -8 55 0 22 1 22 8 -5 4 -16 8 -41 8 -55z m1988 -47 c-9 -140
-31 -282 -56 -358 l-20 -60 3 60 c2 33 12 93 21 134 9 40 18 124 20 187 3 102
13 144 34 144 2 0 2 -48 -2 -107z m-146 27 c6 -11 8 -20 6 -20 -3 0 -10 9 -16
20 -6 11 -8 20 -6 20 3 0 10 -9 16 -20z m-1833 -47 c-3 -10 -5 -4 -5 12 0 17
2 24 5 18 2 -7 2 -21 0 -30z m-1131 -93 c18 -52 33 -103 34 -113 0 -22 20 -12
20 10 0 9 7 25 17 35 18 21 53 24 53 6 0 -7 3 -30 6 -50 6 -34 4 -38 -15 -38
-12 0 -31 4 -41 10 -14 7 -19 5 -23 -10 -5 -19 29 -59 54 -64 8 -1 29 -10 47
-19 l32 -18 0 33 c0 18 -4 50 -9 70 -11 45 5 66 38 49 11 -6 26 -8 34 -5 22 8
47 -24 47 -61 0 -41 -31 -57 -60 -30 -23 21 -40 12 -40 -19 0 -28 11 -37 73
-60 44 -16 48 -21 43 -45 -32 -159 -36 -394 -8 -451 21 -44 48 -59 202 -114
l125 -45 -37 32 c-21 18 -47 54 -59 82 -36 83 -32 163 42 708 7 49 16 84 20
80 5 -5 -2 -81 -16 -172 -15 -90 -24 -165 -21 -168 5 -6 666 -203 680 -203 5
0 38 19 73 41 50 33 62 45 58 63 -16 79 -16 115 1 124 16 9 15 10 -4 16 -25 8
-29 34 -7 42 8 3 36 -6 62 -19 26 -14 86 -42 132 -62 77 -35 87 -36 123 -26
76 23 125 49 125 65 0 16 -105 72 -212 113 -59 23 -60 27 -15 63 36 29 46 32
83 27 37 -6 325 -118 374 -146 16 -9 15 -10 -10 -11 -21 0 -30 -7 -38 -27 -16
-42 -37 -146 -32 -160 3 -7 24 -18 47 -25 22 -7 47 -20 54 -30 37 -50 274 -51
305 -1 4 5 7 33 9 61 4 61 -11 61 157 -9 l116 -49 -5 -77 -5 -76 -75 -25 c-41
-14 -76 -29 -78 -33 -2 -5 -11 -9 -19 -9 -9 0 -314 -99 -677 -219 -646 -215
-1033 -341 -1043 -341 -3 0 -3 35 -1 77 l3 77 -215 119 c-118 65 -305 167
-415 226 -348 188 -520 283 -530 292 -5 5 -34 9 -66 9 -31 0 -70 5 -88 11 -30
11 -61 52 -61 83 0 8 -97 67 -245 146 -135 73 -244 134 -243 135 2 2 39 11 83
20 173 36 316 65 322 65 10 0 -8 -204 -19 -217 -21 -26 0 -58 56 -85 l55 -27
26 45 c15 25 46 69 71 99 24 30 44 59 44 65 0 5 7 10 15 10 8 0 15 5 15 12 0
16 31 48 47 48 26 0 12 -22 -61 -93 -62 -62 -136 -164 -136 -189 0 -4 16 -16
35 -25 34 -18 43 -18 294 7 143 14 264 29 268 34 16 16 -31 37 -74 34 -24 -2
-43 -2 -43 0 0 1 25 18 55 37 64 42 62 29 35 225 -23 169 -23 163 -9 158 7 -2
27 -46 45 -98z m1354 80 c0 -5 -5 -10 -11 -10 -5 0 -7 5 -4 10 3 6 8 10 11 10
2 0 4 -4 4 -10z m-191 -145 c-1 -11 -7 7 -15 40 -7 33 -13 69 -13 80 1 11 7
-7 15 -40 7 -33 13 -69 13 -80z m1801 121 c0 -2 -8 -10 -17 -17 -16 -13 -17
-12 -4 4 13 16 21 21 21 13z m-1650 -26 c13 -8 13 -10 -2 -10 -9 0 -20 5 -23
10 -8 13 5 13 25 0z m1670 -75 c0 -8 -2 -15 -4 -15 -2 0 -6 7 -10 15 -3 8 -1
15 4 15 6 0 10 -7 10 -15z m-545 -5 c-3 -5 -12 -10 -18 -10 -7 0 -6 4 3 10 19
12 23 12 15 0z m-1101 -16 c9 -8 16 -20 16 -25 0 -5 11 -11 25 -15 14 -3 22
-10 19 -15 -8 -14 -88 33 -92 54 -4 21 12 22 32 1z m1613 10 c-3 -4 -2 -15 3
-25 7 -12 6 -20 -2 -25 -7 -4 -10 -4 -6 1 4 4 3 15 -2 25 -8 16 -4 30 8 30 3
0 2 -3 -1 -6z m-1452 -64 c-24 -25 -41 -36 -44 -28 -4 12 55 68 73 68 6 0 -8
-18 -29 -40z m-328 -2 c-3 -7 -5 -2 -5 12 0 14 2 19 5 13 2 -7 2 -19 0 -25z
m247 -39 c15 -14 -36 -28 -64 -17 -28 10 -40 25 -40 50 0 15 4 15 48 -4 26
-11 51 -24 56 -29z m1411 41 c-3 -5 -12 -10 -18 -10 -7 0 -6 4 3 10 19 12 23
12 15 0z m-847 -12 c-5 -15 -65 -31 -87 -23 -13 5 -12 9 9 20 31 18 83 20 78
3z m-801 -50 c-3 -7 -5 -2 -5 12 0 14 2 19 5 13 2 -7 2 -19 0 -25z m1490 16
c-3 -3 -12 -4 -19 -1 -8 3 -5 6 6 6 11 1 17 -2 13 -5z m-57 -14 c0 -12 -8 -12
-35 0 -18 8 -17 9 8 9 15 1 27 -3 27 -9z m179 -4 c-2 -2 -18 -7 -34 -11 l-30
-6 30 14 c27 13 45 14 34 3z m-1329 -11 c8 -9 21 -13 36 -9 29 8 32 -11 4 -26
-15 -8 -28 -7 -52 6 -44 22 -45 24 -28 34 20 13 26 12 40 -5z m869 -12 c46
-23 46 -43 -1 -66 -43 -21 -178 -25 -234 -7 -42 14 -60 42 -38 61 48 40 201
47 273 12z m-910 -29 c8 -8 -22 -24 -45 -24 -26 0 -48 24 -40 45 5 14 9 14 43
0 20 -9 39 -18 42 -21z m1294 29 c-7 -2 -21 -2 -30 0 -10 3 -4 5 12 5 17 0 24
-2 18 -5z m-2979 -60 c58 -31 105 -57 104 -58 -2 -2 -76 -6 -165 -10 l-163 -7
0 25 c0 17 14 37 48 66 26 22 52 40 58 41 7 0 60 -25 118 -57z m1885 11 c8 -7
-21 -24 -42 -24 -10 0 -32 7 -49 16 l-32 16 25 13 c20 11 30 11 58 -1 19 -8
37 -17 40 -20z m-116 -20 l32 -17 -25 -9 c-25 -9 -100 7 -100 22 0 25 48 27
93 4z m182 -11 c19 -9 35 -20 35 -24 0 -17 -51 -18 -85 -2 -33 16 -35 18 -19
30 23 17 26 16 69 -4z m-90 -30 c19 -9 35 -20 35 -25 0 -17 -47 -18 -85 -2
-37 15 -38 17 -20 30 24 18 27 18 70 -3z m445 -77 l0 -73 -26 5 c-34 6 -38 20
-24 86 9 45 15 56 31 56 17 0 19 -8 19 -74z m430 -994 l0 -637 -58 -23 c-32
-12 -60 -22 -62 -22 -3 0 -7 156 -9 348 -2 191 -5 349 -7 351 -3 3 -1244 -408
-1336 -443 -28 -10 -28 -11 -29 -116 -1 -58 -5 -217 -8 -354 l-6 -249 -67 -23
-68 -23 0 192 c0 106 -3 370 -7 587 l-6 396 734 249 c404 137 775 263 824 281
l90 31 1 39 c2 48 3 54 9 54 3 0 5 -287 5 -638z m-3228 387 l70 -41 -7 -196
c-4 -109 -10 -237 -14 -286 l-6 -89 -62 -23 -63 -24 0 350 c0 193 3 350 6 350
3 0 37 -18 76 -41z m1585 -371 c-3 -7 -5 -2 -5 12 0 14 2 19 5 13 2 -7 2 -19
0 -25z"/>
<path d="M3738 4079 c-17 -10 -68 -88 -68 -104 0 -4 19 11 42 34 23 22 57 47
75 53 18 7 33 16 33 20 0 11 -62 9 -82 -3z"/>
<path d="M3661 3753 c-1 -6 -4 -20 -7 -30 -5 -17 -5 -17 6 0 6 10 9 23 6 30
-3 9 -5 9 -5 0z"/>
<path d="M2767 3657 c-4 -10 -7 -28 -6 -40 0 -21 1 -21 10 2 5 14 8 32 7 40
-3 13 -5 13 -11 -2z"/>
<path d="M2830 3576 c30 -6 62 -15 70 -20 8 -4 4 2 -9 13 -17 15 -36 21 -70
20 l-46 -1 55 -12z"/>
<path d="M3811 2787 c-8 -10 -7 -14 2 -14 7 0 18 6 25 14 10 10 10 13 -1 13
-8 0 -20 -6 -26 -13z"/>
<path d="M3820 2756 c0 -2 8 -10 18 -17 15 -13 16 -12 3 4 -13 16 -21 21 -21
13z"/>
<path d="M3780 2711 c5 -11 15 -23 21 -27 6 -3 3 5 -6 20 -20 30 -30 35 -15 7z"/>
<path d="M3860 2719 c0 -5 5 -7 10 -4 6 3 10 8 10 11 0 2 -4 4 -10 4 -5 0 -10
-5 -10 -11z"/>
<path d="M3850 2694 c0 -13 18 -39 24 -34 2 3 -2 14 -10 24 -8 11 -14 16 -14
10z"/>
<path d="M3825 2650 c10 -11 20 -20 23 -20 3 0 -3 9 -13 20 -10 11 -20 20 -23
20 -3 0 3 -9 13 -20z"/>
<path d="M3879 2598 c4 -28 6 -29 9 -9 2 13 0 27 -5 32 -6 6 -7 -3 -4 -23z"/>
<path d="M1840 2496 c5 -13 6 -27 2 -31 -3 -3 1 -3 11 0 23 9 19 55 -5 55 -14
0 -16 -4 -8 -24z"/>
<path d="M1794 2258 l-19 -23 23 19 c12 11 22 21 22 23 0 8 -8 2 -26 -19z"/>
<path d="M1749 2223 c-13 -16 -12 -17 4 -4 9 7 17 15 17 17 0 8 -8 3 -21 -13z"/>
<path d="M1040 2206 c0 -27 50 -56 98 -56 l45 0 -66 35 c-75 40 -77 40 -77 21z"/>
<path d="M1659 2153 l-24 -28 28 24 c25 23 32 31 24 31 -2 0 -14 -12 -28 -27z"/>
<path d="M3505 2098 c-39 -18 -35 -19 13 -4 12 4 22 4 22 -1 0 -4 -118 -51
-262 -103 -144 -52 -265 -96 -270 -98 -4 -2 -8 1 -8 8 0 6 14 16 31 22 16 6
28 12 26 14 -2 2 -18 -1 -35 -7 -24 -8 -32 -17 -32 -35 0 -21 3 -23 19 -14 11
5 133 51 273 101 139 50 257 95 261 99 5 4 7 14 5 22 -2 13 -9 12 -43 -4z"/>
<path d="M1599 2093 c-13 -16 -12 -17 4 -4 9 7 17 15 17 17 0 8 -8 3 -21 -13z"/>
<path d="M1797 2093 c-14 -13 -6 -32 28 -73 19 -23 35 -38 35 -33 0 5 -13 24
-30 43 -42 49 -38 58 23 63 l52 3 -51 2 c-28 1 -54 -1 -57 -5z"/>
<path d="M3338 1792 c-510 -168 -926 -308 -923 -310 2 -2 133 39 292 91 158
53 577 190 931 307 555 183 673 223 635 219 -5 0 -425 -138 -935 -307z"/>
<path d="M3327 2038 c-32 -11 -56 -22 -54 -24 4 -5 127 36 127 42 0 6 -11 4
-73 -18z"/>
<path d="M2660 2035 c0 -7 241 -127 246 -123 2 2 -53 32 -121 66 -69 34 -125
60 -125 57z"/>
<path d="M3172 1983 c-40 -14 -71 -27 -69 -29 4 -4 147 43 155 51 9 9 -12 4
-86 -22z"/>
<path d="M3465 2001 c-3 -5 1 -16 10 -24 13 -13 13 -16 -1 -21 -21 -8 -26 -8
-20 3 8 12 -20 34 -35 29 -7 -2 -14 -15 -16 -28 -3 -19 -1 -22 9 -12 14 14 28
16 28 4 0 -5 -16 -14 -36 -20 -29 -9 -33 -8 -24 3 9 11 7 12 -9 8 -28 -7 -27
5 2 17 l22 9 -23 0 c-26 1 -39 -23 -23 -43 9 -11 7 -15 -11 -19 -25 -7 -38 -1
-38 16 0 8 3 8 9 -2 5 -7 11 -9 14 -4 10 15 -9 34 -26 27 -20 -7 -23 -44 -4
-44 14 -1 -87 -41 -178 -71 l-60 -20 -196 95 c-108 53 -203 96 -210 95 -8 0
79 -47 194 -105 202 -102 207 -105 207 -135 0 -21 4 -30 13 -27 6 2 135 49
285 103 266 97 272 100 272 126 0 36 -27 45 -76 24 -27 -11 -40 -12 -50 -4 -8
6 -11 15 -8 20 3 5 1 9 -5 9 -5 0 -12 -4 -16 -9z"/>
<path d="M3505 1990 c-3 -5 -1 -10 4 -10 6 0 11 5 11 10 0 6 -2 10 -4 10 -3 0
-8 -4 -11 -10z"/>
<path d="M1860 1947 c0 -12 -7 -34 -16 -47 l-16 -25 21 24 c18 20 30 71 16 71
-3 0 -5 -10 -5 -23z"/>
<path d="M1580 1956 c0 -2 8 -10 18 -17 15 -13 16 -12 3 4 -13 16 -21 21 -21
13z"/>
<path d="M3233 1923 c-7 -3 -13 -12 -13 -20 0 -12 -3 -13 -14 -4 -19 16 -58
-3 -50 -24 7 -18 16 -19 32 -3 6 6 26 13 43 15 18 2 35 6 38 8 8 9 -23 33 -36
28z"/>
<path d="M1698 1883 c7 -3 16 -2 19 1 4 3 -2 6 -13 5 -11 0 -14 -3 -6 -6z"/>
<path d="M1748 1873 c12 -2 32 -2 45 0 12 2 2 4 -23 4 -25 0 -35 -2 -22 -4z"/>
<path d="M3753 2400 c-13 -5 -23 -14 -23 -19 0 -22 142 -36 214 -21 59 12 69
29 25 41 -36 10 -190 9 -216 -1z m37 -20 c0 -5 -5 -10 -11 -10 -5 0 -7 5 -4
10 3 6 8 10 11 10 2 0 4 -4 4 -10z m160 0 c0 -5 -9 -10 -20 -10 -11 0 -20 5
-20 10 0 6 9 10 20 10 11 0 20 -4 20 -10z"/>
</g>
</svg>
